{
    "asset" : {
        "generator" : "Khronos glTF Blender I/O v1.3.48",
        "version" : "2.0"
    },
    "scene" : 0,
    "scenes" : [
        {
            "name" : "Scene",
            "nodes" : [
                0,
                1,
                3,
                4
            ]
        }
    ],
    "nodes" : [
        {
            "name" : "Light",
            "rotation" : [
                0.16907575726509094,
                0.7558803558349609,
                -0.27217137813568115,
                0.570947527885437
            ],
            "translation" : [
                4.037734031677246,
                2.653388023376465,
                -4.077874183654785
            ]
        },
        {
            "name" : "Camera",
            "rotation" : [
                0.023262454196810722,
                0.8803573250770569,
                -0.4717443585395813,
                0.04344308003783226
            ],
            "translation" : [
                0.037953343242406845,
                0.3187279999256134,
                -0.4403948187828064
            ]
        },
        {
            "mesh" : 0,
            "name" : "Icing"
        },
        {
            "children" : [
                2
            ],
            "mesh" : 1,
            "name" : "Donut",
            "translation" : [
                -0.002442736178636551,
                0.01675194874405861,
                -0.0039195716381073
            ]
        },
        {
            "mesh" : 2,
            "name" : "Plane"
        }
    ],
    "materials" : [
        {
            "doubleSided" : true,
            "emissiveFactor" : [
                0,
                0,
                0
            ],
            "name" : "Material.002",
            "pbrMetallicRoughness" : {
                "baseColorFactor" : [
                    0.8000000715255737,
                    0.44081738591194153,
                    0.6106835007667542,
                    1
                ],
                "metallicFactor" : 0,
                "roughnessFactor" : 0.2853107452392578
            }
        },
        {
            "doubleSided" : true,
            "emissiveFactor" : [
                0,
                0,
                0
            ],
            "name" : "Material.003",
            "pbrMetallicRoughness" : {
                "baseColorFactor" : [
                    0.8000000715255737,
                    0.440593421459198,
                    0.20457537472248077,
                    1
                ],
                "metallicFactor" : 0,
                "roughnessFactor" : 0.5
            }
        },
        {
            "doubleSided" : true,
            "emissiveFactor" : [
                0,
                0,
                0
            ],
            "name" : "Material.001",
            "pbrMetallicRoughness" : {
                "baseColorFactor" : [
                    0.44875991344451904,
                    0.7771328091621399,
                    0.8000000715255737,
                    1
                ],
                "metallicFactor" : 0,
                "roughnessFactor" : 0.5
            }
        }
    ],
    "meshes" : [
        {
            "name" : "Torus.002",
            "primitives" : [
                {
                    "attributes" : {
                        "POSITION" : 0,
                        "NORMAL" : 1,
                        "TEXCOORD_0" : 2
                    },
                    "indices" : 3,
                    "material" : 0
                }
            ]
        },
        {
            "name" : "Torus.001",
            "primitives" : [
                {
                    "attributes" : {
                        "POSITION" : 4,
                        "NORMAL" : 5,
                        "TEXCOORD_0" : 6
                    },
                    "indices" : 7,
                    "material" : 1
                }
            ]
        },
        {
            "name" : "Plane",
            "primitives" : [
                {
                    "attributes" : {
                        "POSITION" : 8,
                        "NORMAL" : 9,
                        "TEXCOORD_0" : 10
                    },
                    "indices" : 11,
                    "material" : 2
                }
            ]
        }
    ],
    "accessors" : [
        {
            "bufferView" : 0,
            "componentType" : 5126,
            "count" : 1038,
            "max" : [
                0.07116826623678207,
                0.04146341234445572,
                0.08417622745037079
            ],
            "min" : [
                -0.08390682190656662,
                0.0053923474624753,
                -0.06285452842712402
            ],
            "type" : "VEC3"
        },
        {
            "bufferView" : 1,
            "componentType" : 5126,
            "count" : 1038,
            "type" : "VEC3"
        },
        {
            "bufferView" : 2,
            "componentType" : 5126,
            "count" : 1038,
            "type" : "VEC2"
        },
        {
            "bufferView" : 3,
            "componentType" : 5123,
            "count" : 6120,
            "type" : "SCALAR"
        },
        {
            "bufferView" : 4,
            "componentType" : 5126,
            "count" : 1425,
            "max" : [
                0.0693194717168808,
                0.03450051695108414,
                0.08311127126216888
            ],
            "min" : [
                -0.08165010809898376,
                -0.02215125598013401,
                -0.06079857423901558
            ],
            "type" : "VEC3"
        },
        {
            "bufferView" : 5,
            "componentType" : 5126,
            "count" : 1425,
            "type" : "VEC3"
        },
        {
            "bufferView" : 6,
            "componentType" : 5126,
            "count" : 1425,
            "type" : "VEC2"
        },
        {
            "bufferView" : 7,
            "componentType" : 5123,
            "count" : 8064,
            "type" : "SCALAR"
        },
        {
            "bufferView" : 8,
            "componentType" : 5126,
            "count" : 4,
            "max" : [
                1,
                0,
                1
            ],
            "min" : [
                -1,
                0,
                -1
            ],
            "type" : "VEC3"
        },
        {
            "bufferView" : 9,
            "componentType" : 5126,
            "count" : 4,
            "type" : "VEC3"
        },
        {
            "bufferView" : 10,
            "componentType" : 5126,
            "count" : 4,
            "type" : "VEC2"
        },
        {
            "bufferView" : 11,
            "componentType" : 5123,
            "count" : 6,
            "type" : "SCALAR"
        }
    ],
    "bufferViews" : [
        {
            "buffer" : 0,
            "byteLength" : 12456,
            "byteOffset" : 0
        },
        {
            "buffer" : 0,
            "byteLength" : 12456,
            "byteOffset" : 12456
        },
        {
            "buffer" : 0,
            "byteLength" : 8304,
            "byteOffset" : 24912
        },
        {
            "buffer" : 0,
            "byteLength" : 12240,
            "byteOffset" : 33216
        },
        {
            "buffer" : 0,
            "byteLength" : 17100,
            "byteOffset" : 45456
        },
        {
            "buffer" : 0,
            "byteLength" : 17100,
            "byteOffset" : 62556
        },
        {
            "buffer" : 0,
            "byteLength" : 11400,
            "byteOffset" : 79656
        },
        {
            "buffer" : 0,
            "byteLength" : 16128,
            "byteOffset" : 91056
        },
        {
            "buffer" : 0,
            "byteLength" : 48,
            "byteOffset" : 107184
        },
        {
            "buffer" : 0,
            "byteLength" : 48,
            "byteOffset" : 107232
        },
        {
            "buffer" : 0,
            "byteLength" : 32,
            "byteOffset" : 107280
        },
        {
            "buffer" : 0,
            "byteLength" : 12,
            "byteOffset" : 107312
        }
    ],
    "buffers" : [
        {
            "byteLength" : 107324,
            "uri" : "data:application/octet-stream;base64,"
        }
    ]
}
